<?xml version="1.0" encoding="UTF-8"?>
<svg width="61px" height="27px" viewBox="0 0 61 27" version="1.1" xmlns="http://www.w3.org/2000/svg" xmlns:xlink="http://www.w3.org/1999/xlink">
    <!-- Generator: Sketch 50 (54983) - http://www.bohemiancoding.com/sketch -->
    <title>text_1_2_</title>
    <desc>Created with Sketch.</desc>
    <defs></defs>
    <g id="Page-1" stroke="none" stroke-width="1" fill="none" fill-rule="evenodd">
        <g id="logo" transform="translate(-220.000000, -276.000000)" fill="#FFFFFF">
            <g id="BLUE" transform="translate(197.000000, 0.000000)">
                <path d="M82.098,293.166 C81.313,292.586 80.434,292.275 79.639,292.275 C79.037,292.275 78.729,292.533 78.711,292.856 L78.709,292.882 C78.688,293.294 78.984,293.474 80.209,293.757 C82.238,294.206 83.471,294.872 83.365,296.541 L83.363,296.566 C83.246,298.374 81.752,299.442 79.607,299.442 C78.043,299.442 76.578,298.952 75.537,297.983 L76.986,296.35 C77.826,297.047 78.783,297.414 79.81,297.414 C80.468,297.414 80.837,297.186 80.859,296.807 L80.861,296.782 C80.882,296.414 80.603,296.21 79.41,295.93 C77.539,295.496 76.101,294.961 76.189,293.113 L76.191,293.088 C76.271,291.406 77.658,290.183 79.82,290.183 C81.351,290.183 82.523,290.601 83.451,291.394 L82.098,293.166 Z M73.27,292.547 L72.989,299.292 L70.542,299.292 L70.786,292.547 L69.708,292.547 L67.765,290.34 L76.068,290.34 L75.963,292.547 L73.27,292.547 Z M68.076,291.941 L67.81,292.686 C68.027,293.089 68.189,293.519 68.292,293.965 L68.983,294.314 C69.1,294.373 69.172,294.496 69.167,294.63 L69.122,296.036 C69.116,296.171 69.038,296.292 68.917,296.351 L68.208,296.696 C68.077,297.135 67.892,297.557 67.653,297.952 L67.87,298.679 C67.907,298.803 67.872,298.94 67.776,299.033 L66.78,300.01 C66.686,300.102 66.55,300.134 66.426,300.093 L65.717,299.853 C65.322,300.08 64.904,300.252 64.471,300.369 L64.117,301.064 C64.058,301.182 63.937,301.256 63.806,301.256 L62.441,301.256 C62.31,301.256 62.193,301.182 62.138,301.064 L61.812,300.369 C61.382,300.253 60.972,300.08 60.587,299.853 L59.866,300.093 C59.743,300.134 59.608,300.102 59.518,300.01 L58.559,299.033 C58.467,298.94 58.438,298.804 58.479,298.679 L58.727,297.952 C58.504,297.557 58.334,297.136 58.223,296.696 L57.526,296.35 C57.409,296.291 57.335,296.17 57.335,296.036 L57.345,294.63 C57.347,294.495 57.423,294.372 57.542,294.314 L58.247,293.965 C58.368,293.519 58.548,293.089 58.78,292.686 L58.62,292.183 L55.276,288.206 L54.883,288.071 C54.485,288.309 54.059,288.491 53.617,288.613 L53.271,289.345 C53.212,289.469 53.091,289.548 52.957,289.548 L51.557,289.548 C51.422,289.548 51.301,289.469 51.241,289.345 L50.891,288.613 C50.448,288.491 50.02,288.309 49.62,288.071 L49.407,288.143 L46.228,291.989 L46.014,292.685 C46.249,293.088 46.431,293.518 46.555,293.964 L47.264,294.313 C47.385,294.372 47.461,294.495 47.463,294.629 L47.484,296.035 C47.486,296.17 47.412,296.291 47.295,296.35 L46.602,296.695 C46.493,297.134 46.327,297.556 46.107,297.951 L46.36,298.678 C46.403,298.802 46.373,298.939 46.282,299.032 L45.332,300.009 C45.242,300.101 45.106,300.133 44.983,300.092 L44.262,299.852 C43.878,300.079 43.468,300.251 43.039,300.368 L42.72,301.063 C42.666,301.181 42.549,301.255 42.418,301.255 L41.053,301.255 C40.922,301.255 40.801,301.181 40.74,301.063 L40.383,300.368 C39.947,300.252 39.528,300.079 39.132,299.852 L38.424,300.092 C38.303,300.133 38.166,300.101 38.071,300.009 L37.066,299.032 C36.97,298.939 36.933,298.803 36.969,298.678 L37.181,297.951 C36.941,297.556 36.751,297.135 36.618,296.695 L35.905,296.349 C35.784,296.29 35.704,296.169 35.698,296.035 L35.641,294.629 C35.635,294.494 35.705,294.371 35.823,294.313 L36.512,293.964 C36.612,293.518 36.77,293.088 36.983,292.685 L36.712,291.94 C36.666,291.812 36.693,291.67 36.782,291.575 L37.732,290.562 C37.822,290.465 37.96,290.432 38.086,290.475 L38.825,290.725 C39.214,290.49 39.632,290.309 40.068,290.188 L40.391,289.458 C40.446,289.335 40.566,289.255 40.7,289.255 L42.102,289.255 C42.236,289.255 42.36,289.335 42.422,289.458 L42.785,290.188 C43.228,290.309 43.656,290.49 44.058,290.725 L44.262,290.655 L47.441,286.777 L47.66,286.071 C47.422,285.655 47.238,285.211 47.111,284.747 L46.387,284.384 C46.264,284.323 46.185,284.195 46.183,284.053 L46.158,282.572 C46.155,282.429 46.23,282.301 46.351,282.238 L47.068,281.871 C47.181,281.4 47.353,280.949 47.582,280.523 L47.322,279.738 C47.277,279.603 47.308,279.454 47.402,279.353 L48.402,278.285 C48.496,278.184 48.638,278.148 48.767,278.194 L49.521,278.458 C49.925,278.209 50.359,278.02 50.81,277.891 L51.16,277.122 C51.219,276.991 51.344,276.908 51.482,276.908 L52.92,276.908 C53.059,276.908 53.184,276.991 53.244,277.122 L53.599,277.891 C54.052,278.02 54.486,278.209 54.894,278.458 L55.644,278.194 C55.773,278.148 55.915,278.184 56.011,278.285 L57.019,279.353 C57.115,279.454 57.148,279.603 57.103,279.738 L56.849,280.523 C57.081,280.949 57.257,281.4 57.374,281.871 L58.093,282.238 C58.216,282.301 58.292,282.429 58.29,282.572 L58.276,284.053 C58.276,284.195 58.196,284.324 58.075,284.384 L57.354,284.747 C57.231,285.211 57.051,285.655 56.817,286.071 L56.946,286.482 L60.397,290.618 L60.71,290.725 C61.11,290.49 61.536,290.309 61.98,290.188 L62.337,289.458 C62.398,289.335 62.523,289.255 62.655,289.255 L64.057,289.255 C64.192,289.255 64.311,289.335 64.368,289.458 L64.696,290.188 C65.134,290.309 65.553,290.49 65.944,290.725 L66.68,290.475 C66.807,290.432 66.946,290.465 67.035,290.562 L67.994,291.575 C68.094,291.672 68.121,291.813 68.076,291.941 Z M41.545,292.506 C39.984,292.506 38.758,293.801 38.812,295.383 C38.865,296.953 40.161,298.223 41.702,298.223 C43.243,298.223 44.47,296.953 44.436,295.383 C44.402,293.801 43.104,292.506 41.545,292.506 Z M52.271,280.333 C50.667,280.333 49.378,281.697 49.396,283.363 C49.414,285.017 50.712,286.355 52.294,286.355 C53.876,286.355 55.165,285.017 55.169,283.363 C55.172,281.697 53.873,280.333 52.271,280.333 Z M63.348,292.506 C61.787,292.506 60.5,293.801 60.477,295.383 C60.456,296.953 61.692,298.223 63.233,298.223 C64.774,298.223 66.061,296.953 66.102,295.383 C66.143,293.801 64.908,292.506 63.348,292.506 Z M41.303,288.727 L39.312,283.373 L37.673,288.727 L35.49,288.727 L32.024,279.279 L34.726,279.279 L36.54,284.754 L38.112,279.252 L40.313,279.252 L42.233,284.754 L43.701,279.279 L46.35,279.279 L43.484,288.727 L41.303,288.727 Z M29.273,281.592 L29.648,288.661 L27.141,288.661 L26.728,281.592 L23.974,281.592 L23.826,279.279 L31.918,279.279 L32.027,281.592 L29.273,281.592 Z M34.371,291.33 C34.92,291.848 35.218,292.547 35.254,293.436 L35.256,293.461 C35.313,294.833 34.625,295.739 33.539,296.21 L35.787,299.291 L32.959,299.291 L31.044,296.617 L29.965,296.617 L30.108,299.291 L27.659,299.291 L27.135,290.339 L31.396,290.339 C32.771,290.34 33.74,290.705 34.371,291.33 Z M29.746,292.521 L29.861,294.681 L31.494,294.681 C32.336,294.681 32.801,294.271 32.769,293.616 L32.768,293.591 C32.736,292.883 32.206,292.522 31.372,292.522 L29.746,292.522 L29.746,292.521 Z M55.748,291.16 C56.105,291.523 56.322,292.004 56.318,292.624 L56.318,292.65 C56.314,293.693 55.724,294.309 54.931,294.655 C56.013,295.013 56.699,295.626 56.691,296.834 L56.691,296.859 C56.683,298.375 55.441,299.292 53.334,299.292 L48.777,299.292 L48.672,290.34 L53.291,290.34 C54.424,290.34 55.223,290.627 55.748,291.16 Z M51.15,297.328 L53.05,297.328 C53.798,297.328 54.23,297.036 54.23,296.516 L54.23,296.491 C54.23,296.008 53.849,295.689 53.021,295.689 L51.138,295.689 L51.15,297.328 Z M51.117,292.365 L51.127,293.951 L52.686,293.951 C53.44,293.951 53.862,293.693 53.86,293.166 L53.86,293.141 C53.86,292.651 53.475,292.366 52.733,292.366 L51.117,292.366 L51.117,292.365 Z M56.531,301.715 L58.252,299.655 L58.711,300.092 L56.693,301.865 C56.922,302.154 56.918,302.56 56.664,302.82 C56.385,303.105 55.912,303.105 55.607,302.82 C55.302,302.534 55.283,302.069 55.56,301.783 C55.816,301.521 56.23,301.5 56.531,301.715 Z M67.875,299.656 L69.711,301.715 C70,301.501 70.416,301.522 70.686,301.783 C70.981,302.069 70.985,302.535 70.698,302.821 C70.409,303.106 69.936,303.106 69.641,302.821 C69.371,302.56 69.346,302.154 69.559,301.866 L67.442,300.093 L67.875,299.656 Z" id="text_1_2_"></path>
            </g>
        </g>
    </g>
</svg>